<mxfile host="app.diagrams.net" modified="2024-07-02T09:52:35.168Z" agent="Mozilla/5.0 (Windows NT 10.0; Win64; x64) AppleWebKit/537.36 (KHTML, like Gecko) Chrome/126.0.0.0 Safari/537.36" etag="LoXOwY8hF0GOmVnmzdHc" version="24.2.5" type="github">
  <diagram name="第 1 页" id="27sVzMVuAJ41RTYrY-uV">
    <mxGraphModel dx="2261" dy="772" grid="1" gridSize="10" guides="1" tooltips="1" connect="1" arrows="1" fold="1" page="1" pageScale="1" pageWidth="827" pageHeight="1169" math="0" shadow="0">
      <root>
        <mxCell id="0" />
        <mxCell id="1" parent="0" />
        <mxCell id="GU2TjW2uvqxuIING3KNY-14" style="edgeStyle=orthogonalEdgeStyle;rounded=0;orthogonalLoop=1;jettySize=auto;html=1;" edge="1" parent="1" source="GU2TjW2uvqxuIING3KNY-1" target="GU2TjW2uvqxuIING3KNY-5">
          <mxGeometry relative="1" as="geometry" />
        </mxCell>
        <mxCell id="GU2TjW2uvqxuIING3KNY-15" value="InputFormat 读取" style="edgeLabel;html=1;align=center;verticalAlign=middle;resizable=0;points=[];" vertex="1" connectable="0" parent="GU2TjW2uvqxuIING3KNY-14">
          <mxGeometry x="-0.05" y="-1" relative="1" as="geometry">
            <mxPoint as="offset" />
          </mxGeometry>
        </mxCell>
        <mxCell id="GU2TjW2uvqxuIING3KNY-1" value="存储在 HDFS 的 HIVE 数据文件" style="rounded=0;whiteSpace=wrap;html=1;" vertex="1" parent="1">
          <mxGeometry x="-210" y="240" width="200" height="60" as="geometry" />
        </mxCell>
        <mxCell id="GU2TjW2uvqxuIING3KNY-17" style="edgeStyle=orthogonalEdgeStyle;rounded=0;orthogonalLoop=1;jettySize=auto;html=1;entryX=0;entryY=0.5;entryDx=0;entryDy=0;" edge="1" parent="1" source="GU2TjW2uvqxuIING3KNY-5" target="GU2TjW2uvqxuIING3KNY-16">
          <mxGeometry relative="1" as="geometry" />
        </mxCell>
        <mxCell id="GU2TjW2uvqxuIING3KNY-18" value="Deserializer反序列化" style="edgeLabel;html=1;align=center;verticalAlign=middle;resizable=0;points=[];" vertex="1" connectable="0" parent="GU2TjW2uvqxuIING3KNY-17">
          <mxGeometry x="-0.1" y="2" relative="1" as="geometry">
            <mxPoint as="offset" />
          </mxGeometry>
        </mxCell>
        <mxCell id="GU2TjW2uvqxuIING3KNY-5" value="&amp;lt;key, value&amp;gt;" style="rounded=0;whiteSpace=wrap;html=1;fillColor=default;strokeColor=default;" vertex="1" parent="1">
          <mxGeometry x="150" y="240" width="80" height="60" as="geometry" />
        </mxCell>
        <mxCell id="GU2TjW2uvqxuIING3KNY-16" value="数据行对象" style="rounded=0;whiteSpace=wrap;html=1;fillColor=default;strokeColor=default;" vertex="1" parent="1">
          <mxGeometry x="400" y="240" width="80" height="60" as="geometry" />
        </mxCell>
        <mxCell id="GU2TjW2uvqxuIING3KNY-22" style="edgeStyle=orthogonalEdgeStyle;rounded=0;orthogonalLoop=1;jettySize=auto;html=1;entryX=0;entryY=0.5;entryDx=0;entryDy=0;" edge="1" parent="1" source="GU2TjW2uvqxuIING3KNY-19" target="GU2TjW2uvqxuIING3KNY-20">
          <mxGeometry relative="1" as="geometry" />
        </mxCell>
        <mxCell id="GU2TjW2uvqxuIING3KNY-23" value="Serializer 序列化" style="edgeLabel;html=1;align=center;verticalAlign=middle;resizable=0;points=[];" vertex="1" connectable="0" parent="GU2TjW2uvqxuIING3KNY-22">
          <mxGeometry x="-0.0533" y="2" relative="1" as="geometry">
            <mxPoint as="offset" />
          </mxGeometry>
        </mxCell>
        <mxCell id="GU2TjW2uvqxuIING3KNY-19" value="数据行对象" style="rounded=0;whiteSpace=wrap;html=1;fillColor=default;strokeColor=default;" vertex="1" parent="1">
          <mxGeometry x="-210" y="370" width="80" height="60" as="geometry" />
        </mxCell>
        <mxCell id="GU2TjW2uvqxuIING3KNY-24" style="edgeStyle=orthogonalEdgeStyle;rounded=0;orthogonalLoop=1;jettySize=auto;html=1;" edge="1" parent="1" source="GU2TjW2uvqxuIING3KNY-20" target="GU2TjW2uvqxuIING3KNY-21">
          <mxGeometry relative="1" as="geometry" />
        </mxCell>
        <mxCell id="GU2TjW2uvqxuIING3KNY-25" value="OutputFormat 写入" style="edgeLabel;html=1;align=center;verticalAlign=middle;resizable=0;points=[];" vertex="1" connectable="0" parent="GU2TjW2uvqxuIING3KNY-24">
          <mxGeometry y="-2" relative="1" as="geometry">
            <mxPoint as="offset" />
          </mxGeometry>
        </mxCell>
        <mxCell id="GU2TjW2uvqxuIING3KNY-20" value="&amp;lt;key, value&amp;gt;" style="rounded=0;whiteSpace=wrap;html=1;fillColor=default;strokeColor=default;" vertex="1" parent="1">
          <mxGeometry x="20" y="370" width="80" height="60" as="geometry" />
        </mxCell>
        <mxCell id="GU2TjW2uvqxuIING3KNY-21" value="存储在 HDFS 的 HIVE 数据文件" style="rounded=0;whiteSpace=wrap;html=1;" vertex="1" parent="1">
          <mxGeometry x="280" y="370" width="200" height="60" as="geometry" />
        </mxCell>
      </root>
    </mxGraphModel>
  </diagram>
</mxfile>
